<mxfile host="65bd71144e">
    <diagram id="mNFGkS7w7EyEu26hPMA5" name="Page-1">
        <mxGraphModel dx="1700" dy="754" grid="1" gridSize="10" guides="1" tooltips="1" connect="1" arrows="1" fold="1" page="1" pageScale="1" pageWidth="850" pageHeight="1100" math="0" shadow="0">
            <root>
                <mxCell id="0"/>
                <mxCell id="1" parent="0"/>
                <mxCell id="2" value="" style="whiteSpace=wrap;html=1;fillColor=#2BA283;strokeColor=none;fontColor=#ffffff;" parent="1" vertex="1">
                    <mxGeometry x="100" y="112.77" width="690" height="430" as="geometry"/>
                </mxCell>
                <mxCell id="3" value="&lt;div&gt;&lt;font color=&quot;#ffffff&quot;&gt;&lt;span style=&quot;font-size: 41px;&quot;&gt;S3 Static Website&lt;/span&gt;&lt;/font&gt;&lt;/div&gt;&lt;div&gt;&lt;span style=&quot;color: rgb(255, 255, 255); font-size: 41px;&quot;&gt;AWS CLI&amp;nbsp;&lt;/span&gt;&lt;font color=&quot;#ffffff&quot;&gt;&lt;span style=&quot;font-size: 41px;&quot;&gt;&lt;br&gt;&lt;/span&gt;&lt;/font&gt;&lt;/div&gt;&lt;div&gt;&lt;br&gt;&lt;/div&gt;" style="text;strokeColor=none;align=center;fillColor=none;html=1;verticalAlign=middle;whiteSpace=wrap;rounded=0;" parent="1" vertex="1">
                    <mxGeometry x="200" y="240" width="387.99" height="30" as="geometry"/>
                </mxCell>
                <mxCell id="5" value="" style="shape=singleArrow;direction=north;whiteSpace=wrap;html=1;fontSize=41;fontColor=#FFFFFF;fillColor=#FFFFFF;rotation=90;strokeColor=none;arrowWidth=0.3223895670572915;arrowSize=0.20571489560287637;" parent="1" vertex="1">
                    <mxGeometry x="417.01" y="40" width="60" height="549.3" as="geometry"/>
                </mxCell>
                <mxCell id="43" value="" style="outlineConnect=0;dashed=0;verticalLabelPosition=bottom;verticalAlign=top;align=center;html=1;shape=mxgraph.aws3.cloud_2;fillColor=#F58534;gradientColor=none;" vertex="1" parent="1">
                    <mxGeometry x="320" y="360" width="75" height="75" as="geometry"/>
                </mxCell>
                <mxCell id="46" value="" style="outlineConnect=0;dashed=0;verticalLabelPosition=bottom;verticalAlign=top;align=center;html=1;shape=mxgraph.aws3.s3;fillColor=#E05243;gradientColor=none;" vertex="1" parent="1">
                    <mxGeometry x="460" y="351" width="76.5" height="93" as="geometry"/>
                </mxCell>
            </root>
        </mxGraphModel>
    </diagram>
</mxfile>